# xmcd CD database file
#
# Track frame offsets:
#	150
#	24726
#	57292
#	72027
#	95022
#	107037
#	139196
#	168367
#	195665
#
# Disc length: 2814 seconds
#
# Revision: 0
# Processed by: cddbd v1.5.1PL2 Copyright (c) Steve Scherf et al.
# Submitted via: CDex 1.50Beta7
#
DISCID=7b0afc09
DTITLE=Charlie Peacock - Love Press Ex-Curio
DYEAR=2005
DGENRE=Jazz
TTITLE0=When Diana Dances
TTITLE1=Super Jet Service
TTITLE2=Dodo's Whim
TTITLE3=Be Well Johnny Cash
TTITLE4=Frank The Marxist Memorial Gong Blues
TTITLE5=Bucketachicken
TTITLE6=London Twist N' Turn
TTITLE7=Longing For Louis
TTITLE8=All or Nothing Grace
EXTD=YEAR: 2005
EXTT0=
EXTT1=
EXTT2=
EXTT3=
EXTT4=
EXTT5=
EXTT6=
EXTT7=
EXTT8=
PLAYORDER=
